<svg version="1.1" xmlns="http://www.w3.org/2000/svg" style="display: block;" viewBox="0 0 2048 2048" width="1024" height="1024" preserveAspectRatio="none">
<defs>
	<linearGradient id="Gradient1" gradientUnits="userSpaceOnUse" x1="403.49" y1="449.636" x2="1671.19" y2="1588.18">
		<stop class="stop0" offset="0" stop-opacity="1" stop-color="rgb(124,69,238)"/>
		<stop class="stop1" offset="1" stop-opacity="1" stop-color="rgb(219,59,245)"/>
	</linearGradient>
</defs>
<path transform="translate(0,0)" fill="url(#Gradient1)" d="M 1807.92 1414.33 C 1808.43 1432.07 1798.15 1451.53 1786.35 1464.19 C 1770.85 1480.82 1704.78 1516.62 1681.33 1530.51 L 1453.48 1664.53 C 1368.72 1715.65 1283.54 1766.06 1197.95 1815.76 L 1125.58 1858.3 C 1111.87 1866.36 1098.23 1875 1084.05 1882.18 C 1069.81 1889.38 1055.22 1892.83 1039.31 1893.35 C 1023.95 1893.85 1008.8 1889.07 995.233 1882.18 C 978.745 1873.8 962.845 1863.95 946.844 1854.67 L 863.058 1805.71 L 607.242 1654.96 C 532.697 1611.86 458.38 1568.36 384.295 1524.46 L 332.443 1493.57 C 319.053 1485.53 304.112 1477.82 292.722 1467.03 C 274.338 1449.62 268.459 1427.26 267.856 1402.67 C 266.452 1345.37 267.866 1287.68 267.856 1230.34 L 267.83 879.425 L 267.825 705.616 C 267.822 679.91 265.675 643.116 268.89 618.875 C 271.218 601.698 278.973 585.714 291.023 573.254 C 306.111 557.655 338.655 541.491 357.812 530.089 L 455.371 471.765 L 804.857 265.387 C 847.208 240.389 889.727 215.676 932.41 191.249 C 952.284 179.756 971.903 167.018 992.294 156.526 C 1006.42 149.255 1019.52 144.034 1035.56 143.846 C 1050.93 143.667 1064.74 146.563 1078.59 153.299 C 1098.04 162.764 1116.87 174.995 1135.54 185.982 L 1223.63 237.434 L 1524.18 415.799 L 1695.72 517.483 C 1716.58 529.835 1769.39 558.127 1784.64 573.333 C 1796.18 585.022 1803.98 599.875 1807.06 616.008 C 1810.07 631.997 1808.85 649.902 1808.84 666.125 L 1808.81 737.571 L 1808.67 1005.61 C 1808.89 1043.02 1810.12 1081.05 1808.67 1118.4 L 1808.73 1318.6 L 1808.76 1377.97 C 1808.76 1389.94 1809.42 1402.45 1807.92 1414.33 z"/>
<path transform="translate(0,0)" fill="rgb(174,63,241)" d="M 1805.2 1296.55 C 1804.55 1270.76 1804.36 977.67 1807.66 972.547 C 1807.49 981.98 1805.88 994.637 1808.15 1003.71 C 1808.31 1004.34 1808.5 1004.98 1808.67 1005.61 C 1808.89 1043.02 1810.12 1081.05 1808.67 1118.4 L 1808.73 1318.6 L 1808.76 1377.97 C 1808.76 1389.94 1809.42 1402.45 1807.92 1414.33 L 1806.42 1408.71 L 1806.2 1410.5 C 1801.33 1399.03 1806.2 1315.68 1805.2 1296.55 z"/>
<path transform="translate(0,0)" fill="rgb(255,255,255)" d="M 1014.58 389.424 C 1175.35 383.87 1332 440.926 1451.54 548.575 C 1575.65 661.48 1650.16 818.819 1658.87 986.373 C 1668.81 1153.63 1610.97 1317.84 1498.39 1441.95 C 1410.23 1539.7 1292.02 1613.89 1162.68 1641.5 C 1129.91 1648.2 1096.66 1652.27 1063.25 1653.68 C 1063.03 1653.7 1062.82 1653.71 1062.61 1653.72 C 906.889 1661.06 748.69 1599.85 632.382 1497.02 C 505.191 1385.99 428.037 1228.44 418.311 1059.88 C 406.705 891.545 463.415 725.63 575.632 599.615 C 687.691 473.325 845.935 397.549 1014.58 389.424 z"/>
<path transform="translate(0,0)" fill="rgb(174,63,241)" d="M 566.395 686.829 C 580.98 690.616 596.12 692.969 610.928 695.762 C 638.809 700.98 666.718 706.046 694.654 710.959 C 759.185 722.448 823.98 734.929 888.821 744.405 C 840.479 817.862 792.674 891.67 745.41 965.824 L 631.299 1138.58 C 618.376 1159.17 604.02 1178.99 590.507 1199.21 C 578.006 1217.92 566.254 1237.11 553.817 1255.85 C 545.564 1268.29 536.816 1280.42 529.013 1293.15 C 506.433 1252.09 490.351 1205.61 479.317 1160.19 C 445.213 1019.8 466.992 873.234 532.116 745.25 C 542.323 725.19 554.706 706.056 566.395 686.829 z"/>
<path transform="translate(0,0)" fill="rgb(174,63,241)" d="M 1560.88 775.694 C 1573.33 788.884 1597.04 879.656 1601.7 901.632 C 1625.05 1011.7 1614.48 1142.46 1570.74 1246.37 C 1553.77 1286.69 1531.26 1324.09 1507.5 1360.69 C 1438 1347.33 1368.23 1335.32 1298.58 1322.75 C 1267.29 1316.75 1235.86 1311.52 1204.6 1305.37 C 1266.89 1216.34 1325.62 1124.74 1386.54 1034.77 C 1444.84 948.653 1505.76 863.894 1560.88 775.694 z"/>
<path transform="translate(0,0)" fill="rgb(174,63,241)" d="M 748.239 1029.67 C 758.987 1049.74 766.833 1073.16 775.318 1094.31 C 789.639 1130.08 804.232 1165.74 819.095 1201.28 C 876.419 1335.66 932.164 1470.7 986.319 1606.39 C 931.291 1600.58 879.61 1586.22 828.128 1566.26 C 733.635 1527.14 650.661 1464.6 587.028 1384.54 C 573.368 1367.03 561.34 1348.29 549.448 1329.56 C 563.319 1310.57 575.177 1290.08 587.932 1270.33 L 643.532 1185.89 C 677.592 1133.31 713.566 1081.86 748.239 1029.67 z"/>
<path transform="translate(0,0)" fill="rgb(174,63,241)" d="M 1104.49 439.073 C 1127.71 442.603 1150.73 447.306 1173.47 453.162 C 1333.03 495.375 1458.41 594.271 1541.24 736.506 C 1532.01 755.667 1518.27 773.798 1506.5 791.49 C 1480.69 830.296 1453.9 868.442 1427.89 907.116 C 1402.39 944.74 1376.68 982.225 1350.77 1019.57 C 1338.2 992.949 1327.28 965.161 1315.87 938.004 L 1260.97 808.335 C 1208.6 685.371 1155.16 562.738 1104.49 439.073 z"/>
<path transform="translate(0,0)" fill="rgb(174,63,241)" d="M 1042.37 437.44 L 1063.33 436.966 C 1084.36 488.19 1105.92 539.189 1128.03 589.955 L 1201.39 760.288 C 1136.51 746.679 1070.4 738.007 1004.99 727.354 C 942.479 717.174 880.18 704.971 817.775 694.083 L 671.824 668.846 C 644.81 664.243 617.583 658.69 590.365 655.545 C 596.957 647.933 603.647 640.407 610.433 632.968 C 697.802 537.548 810.135 471.418 937.936 448.014 C 972.408 441.701 1007.39 438.963 1042.37 437.44 z"/>
<path transform="translate(0,0)" fill="rgb(174,63,241)" d="M 896.698 1287.88 C 918.359 1288.33 940.923 1293.53 962.211 1297.38 L 1055.25 1314.06 L 1482.67 1391.93 C 1449.48 1431.06 1412.18 1466.5 1371.4 1497.65 C 1271.84 1571.56 1150.89 1611 1026.89 1609.97 C 1015.9 1580.32 1003.12 1551.18 991.035 1521.96 L 932.505 1378.81 C 920.319 1348.62 907.773 1318.5 896.698 1287.88 z"/>
</svg>